<svg xmlns="http://www.w3.org/2000/svg" width="800" height="400" viewBox="0 0 800 400">
  <rect width="800" height="400" fill="#1e293b"/>
  <rect x="60" y="50" width="680" height="300" rx="16" fill="#0f172a" stroke="#334155" stroke-width="2"/>
  <circle cx="100" cy="80" r="8" fill="#f87171"/>
  <circle cx="130" cy="80" r="8" fill="#fbbf24"/>
  <circle cx="160" cy="80" r="8" fill="#4ade80"/>
  <rect x="100" y="120" width="250" height="20" rx="4" fill="#38bdf8" opacity="0.6"/>
  <rect x="100" y="160" width="180" height="14" rx="4" fill="#94a3b8" opacity="0.4"/>
  <rect x="100" y="190" width="300" height="14" rx="4" fill="#94a3b8" opacity="0.3"/>
  <rect x="100" y="220" width="220" height="14" rx="4" fill="#94a3b8" opacity="0.3"/>
  <rect x="480" y="120" width="220" height="140" rx="10" fill="#334155"/>
  <rect x="500" y="140" width="80" height="60" rx="6" fill="#38bdf8" opacity="0.4"/>
  <rect x="600" y="140" width="80" height="60" rx="6" fill="#22d3ee" opacity="0.4"/>
  <rect x="500" y="220" width="180" height="14" rx="4" fill="#94a3b8" opacity="0.3"/>
  <rect x="100" y="280" width="120" height="36" rx="8" fill="#38bdf8"/>
  <text x="160" y="304" font-family="sans-serif" font-size="14" fill="#0f172a" text-anchor="middle" font-weight="bold">Live Demo</text>
  <rect x="240" y="280" width="120" height="36" rx="8" fill="none" stroke="#38bdf8" stroke-width="2"/>
  <text x="300" y="304" font-family="sans-serif" font-size="14" fill="#38bdf8" text-anchor="middle" font-weight="bold">GitHub</text>
</svg>
